HIERARCHY
ROOT Hips
{
    OFFSET   0.000000   0.000000   0.000000
    CHANNELS 6 Xposition Yposition Zposition Zrotation Xrotation Yrotation
    JOINT Chest
    {
        OFFSET   0.000000   8.007240   0.000000
        CHANNELS 3 Zrotation Xrotation Yrotation
        JOINT Chest2
        {
            OFFSET   0.000000  22.077100   0.000000
            CHANNELS 3 Zrotation Xrotation Yrotation
            JOINT Neck
            {
                OFFSET   0.000000  23.254800   0.000000
                CHANNELS 3 Zrotation Xrotation Yrotation
                JOINT Head
                {
                    OFFSET   0.000000  14.370000   1.956600
                    CHANNELS 3 Zrotation Xrotation Yrotation
                    End Site
                    {
                        OFFSET   0.000000  19.566000   0.000000
                    }
                }
            }
            JOINT LeftCollar
            {
                OFFSET   3.911900  19.017000  -0.467064
                CHANNELS 3 Zrotation Xrotation Yrotation
                JOINT LeftShoulder
                {
                    OFFSET  10.383700   0.000000   0.000000
                    CHANNELS 3 Zrotation Xrotation Yrotation
                    JOINT LeftElbow
                    {
                        OFFSET  26.662100   0.001476   0.000517
                        CHANNELS 3 Zrotation Xrotation Yrotation
                        JOINT LeftWrist
                        {
                            OFFSET  28.869000  -0.000025  -0.000106
                            CHANNELS 3 Zrotation Xrotation Yrotation
                            JOINT LeftFinger0
                            {
                                OFFSET   2.044660  -2.323460   3.252850
                                CHANNELS 3 Zrotation Xrotation Yrotation
                                JOINT LeftFinger01
                                {
                                    OFFSET   3.088130   0.000000   0.000000
                                    CHANNELS 3 Zrotation Xrotation Yrotation
                                    JOINT LeftFinger02
                                    {
                                        OFFSET   2.639460   0.000000   0.000000
                                        CHANNELS 3 Zrotation Xrotation Yrotation
                                        End Site
                                        {
                                            OFFSET   2.582190   0.000000   0.000000
                                        }
                                    }
                                }
                            }
                            JOINT LeftFinger1
                            {
                                OFFSET   8.364480   0.000000   3.252850
                                CHANNELS 3 Zrotation Xrotation Yrotation
                                JOINT LeftFinger11
                                {
                                    OFFSET   4.646930   0.000000   0.000000
                                    CHANNELS 3 Zrotation Xrotation Yrotation
                                    JOINT LeftFinger12
                                    {
                                        OFFSET   2.323460   0.000000   0.000000
                                        CHANNELS 3 Zrotation Xrotation Yrotation
                                        End Site
                                        {
                                            OFFSET   2.273050   0.000000   0.000000
                                        }
                                    }
                                }
                            }
                            JOINT LeftFinger2
                            {
                                OFFSET   8.364490   0.000015   1.078090
                                CHANNELS 3 Zrotation Xrotation Yrotation
                                JOINT LeftFinger21
                                {
                                    OFFSET   5.111620   0.000000   0.000000
                                    CHANNELS 3 Zrotation Xrotation Yrotation
                                    JOINT LeftFinger22
                                    {
                                        OFFSET   2.788160   0.000016   0.000000
                                        CHANNELS 3 Zrotation Xrotation Yrotation
                                        End Site
                                        {
                                            OFFSET   2.727660   0.000000   0.000000
                                        }
                                    }
                                }
                            }
                            JOINT LeftFinger3
                            {
                                OFFSET   7.899780   0.000017  -1.078090
                                CHANNELS 3 Zrotation Xrotation Yrotation
                                JOINT LeftFinger31
                                {
                                    OFFSET   4.646930   0.000000   0.000000
                                    CHANNELS 3 Zrotation Xrotation Yrotation
                                    JOINT LeftFinger32
                                    {
                                        OFFSET   2.323470   0.000000   0.000000
                                        CHANNELS 3 Zrotation Xrotation Yrotation
                                        End Site
                                        {
                                            OFFSET   2.273050   0.000000   0.000000
                                        }
                                    }
                                }
                            }
                            JOINT LeftFinger4
                            {
                                OFFSET   7.435090   0.000000  -3.252850
                                CHANNELS 3 Zrotation Xrotation Yrotation
                                JOINT LeftFinger41
                                {
                                    OFFSET   3.717550   0.000000   0.000000
                                    CHANNELS 3 Zrotation Xrotation Yrotation
                                    JOINT LeftFinger42
                                    {
                                        OFFSET   1.858770   0.000000   0.000000
                                        CHANNELS 3 Zrotation Xrotation Yrotation
                                        End Site
                                        {
                                            OFFSET   1.818440   0.000000   0.000000
                                        }
                                    }
                                }
                            }
                        }
                    }
                }
            }
            JOINT RightCollar
            {
                OFFSET  -3.911900  19.017000  -0.467063
                CHANNELS 3 Zrotation Xrotation Yrotation
                JOINT RightShoulder
                {
                    OFFSET -10.383700   0.000019   0.000000
                    CHANNELS 3 Zrotation Xrotation Yrotation
                    JOINT RightElbow
                    {
                        OFFSET -26.662100   0.001175   0.000102
                        CHANNELS 3 Zrotation Xrotation Yrotation
                        JOINT RightWrist
                        {
                            OFFSET -28.869000   0.000016  -0.000079
                            CHANNELS 3 Zrotation Xrotation Yrotation
                            JOINT RightFinger0
                            {
                                OFFSET  -2.044660  -2.323490   3.252850
                                CHANNELS 3 Zrotation Xrotation Yrotation
                                JOINT RightFinger01
                                {
                                    OFFSET  -3.088140   0.000000   0.000000
                                    CHANNELS 3 Zrotation Xrotation Yrotation
                                    JOINT RightFinger02
                                    {
                                        OFFSET  -2.639460   0.000000   0.000000
                                        CHANNELS 3 Zrotation Xrotation Yrotation
                                        End Site
                                        {
                                            OFFSET  -2.582190   0.000000   0.000000
                                        }
                                    }
                                }
                            }
                            JOINT RightFinger1
                            {
                                OFFSET  -8.364480   0.000000   3.252850
                                CHANNELS 3 Zrotation Xrotation Yrotation
                                JOINT RightFinger11
                                {
                                    OFFSET  -4.646930   0.000000   0.000000
                                    CHANNELS 3 Zrotation Xrotation Yrotation
                                    JOINT RightFinger12
                                    {
                                        OFFSET  -2.323470   0.000000   0.000000
                                        CHANNELS 3 Zrotation Xrotation Yrotation
                                        End Site
                                        {
                                            OFFSET  -2.273050   0.000000   0.000000
                                        }
                                    }
                                }
                            }
                            JOINT RightFinger2
                            {
                                OFFSET  -8.364480   0.000000   1.078090
                                CHANNELS 3 Zrotation Xrotation Yrotation
                                JOINT RightFinger21
                                {
                                    OFFSET  -5.111620   0.000000   0.000000
                                    CHANNELS 3 Zrotation Xrotation Yrotation
                                    JOINT RightFinger22
                                    {
                                        OFFSET  -2.788160   0.000000   0.000000
                                        CHANNELS 3 Zrotation Xrotation Yrotation
                                        End Site
                                        {
                                            OFFSET  -2.727660   0.000000   0.000000
                                        }
                                    }
                                }
                            }
                            JOINT RightFinger3
                            {
                                OFFSET  -7.899780   0.000000  -1.078090
                                CHANNELS 3 Zrotation Xrotation Yrotation
                                JOINT RightFinger31
                                {
                                    OFFSET  -4.646930   0.000000   0.000000
                                    CHANNELS 3 Zrotation Xrotation Yrotation
                                    JOINT RightFinger32
                                    {
                                        OFFSET  -2.323470   0.000000   0.000000
                                        CHANNELS 3 Zrotation Xrotation Yrotation
                                        End Site
                                        {
                                            OFFSET  -2.273050   0.000000   0.000000
                                        }
                                    }
                                }
                            }
                            JOINT RightFinger4
                            {
                                OFFSET  -7.435090   0.000000  -3.252850
                                CHANNELS 3 Zrotation Xrotation Yrotation
                                JOINT RightFinger41
                                {
                                    OFFSET  -3.717550   0.000000   0.000000
                                    CHANNELS 3 Zrotation Xrotation Yrotation
                                    JOINT RightFinger42
                                    {
                                        OFFSET  -1.858770   0.000000   0.000000
                                        CHANNELS 3 Zrotation Xrotation Yrotation
                                        End Site
                                        {
                                            OFFSET  -1.818440   0.000000   0.000000
                                        }
                                    }
                                }
                            }
                        }
                    }
                }
            }
        }
    }
    JOINT LeftHip
    {
        OFFSET   9.783040   0.000000   0.000000
        CHANNELS 3 Zrotation Xrotation Yrotation
        JOINT LeftKnee
        {
            OFFSET   0.000032 -41.789100  -0.002222
            CHANNELS 3 Zrotation Xrotation Yrotation
            JOINT LeftAnkle
            {
                OFFSET   0.000087 -41.133200  -0.000135
                CHANNELS 3 Zrotation Xrotation Yrotation
                JOINT LeftToe
                {
                    OFFSET   0.000000  -6.358960  14.674500
                    CHANNELS 3 Zrotation Xrotation Yrotation
                    End Site
                    {
                        OFFSET   0.000000   0.000000   3.913200
                    }
                }
            }
        }
    }
    JOINT RightHip
    {
        OFFSET  -9.783040   0.000000   0.000000
        CHANNELS 3 Zrotation Xrotation Yrotation
        JOINT RightKnee
        {
            OFFSET   0.000047 -41.789100  -0.000896
            CHANNELS 3 Zrotation Xrotation Yrotation
            JOINT RightAnkle
            {
                OFFSET  -0.000117 -41.133300  -0.000248
                CHANNELS 3 Zrotation Xrotation Yrotation
                JOINT RightToe
                {
                    OFFSET   0.000000  -6.358970  14.674500
                    CHANNELS 3 Zrotation Xrotation Yrotation
                    End Site
                    {
                        OFFSET   0.000000   0.000000   3.913200
                    }
                }
            }
        }
    }
}
MOTION
Frames: 5
Frame Time:   0.016667
 -2.601610  89.512200   2.225350  -2.547900 -11.329000   0.960781   2.553260   8.362570  -1.095140   5.356170  16.665300  -2.612640  -2.614970   1.233490   0.056303  -4.301080   2.485640  12.387400  -9.250740   0.250103   0.123050 -67.217600  31.623600 -17.028000   9.682250  -0.205642 -79.284000  33.820000  -3.633350  -0.027190  36.612000  22.727700 -64.776800 -13.122700   0.036943   0.008656  -1.561360   0.018704   0.000395 -17.438200   3.297550 -10.114900 -14.508600   0.032736   0.033806 -10.156100   0.016834   0.028184 -20.666000   0.642095  -1.531060 -20.662900   0.013745   0.026961 -13.761500   0.003509   0.020111 -27.051500  -1.506450   3.023510 -26.380300   0.035006   0.097170 -17.569200  -0.002912   0.068724 -26.311400  -5.378780  10.801300 -40.224500  -0.004710   0.049520 -26.789500  -0.019198   0.032701   3.732850  -2.227340  15.824700  70.111700  26.651700   7.907850 -16.453800 -10.923400  78.446100 -45.471800  -9.939340  18.452900 -44.403000  31.713900  69.556000   6.786500  -0.014511  -0.000000  -1.606750  -0.002966   0.000853  19.414200   2.691400   7.590910  16.030900   0.022473   0.001731  11.221600   0.015244   0.003840  19.182800   0.302879   0.732156  19.251600   0.057322  -0.005250  12.821600   0.035721  -0.013532  25.356200  -3.169390  -6.663870  25.501000   0.028917   0.015163  16.983700   0.020252  -0.000274  26.396000  -6.727480 -13.314500  40.793100   0.027908   0.015372  27.168200   0.021697  -0.001175   4.169690  14.838600   2.388060   0.258112   0.111423  10.646500  -2.871460  -2.875810   0.180923  -0.000000   0.000000   0.000000   2.102340   9.748240  -6.946110   1.291540   4.669500  -6.958210  -3.546260  -2.675060  -1.284700   0.000000   0.000000  -0.000000
 -2.617530  89.516200   2.249420  -2.512420 -11.189000   1.082100   2.529100   8.260530  -1.114960   5.304500  16.461100  -2.638880  -2.612110   1.124940   0.051251  -4.295680   2.266630  12.496100  -9.217490   0.328152   0.338671 -67.244400  31.569600 -17.222100   9.460940  -0.864023 -78.312700  33.659500  -4.361540   0.699636  36.486500  22.969900 -65.006100 -13.783500   0.042551   0.010509  -1.891740   0.021594   0.000352 -20.206700   3.963880 -10.438000 -16.832600   0.032175   0.031528 -11.782800   0.016611   0.026656 -22.741800   0.880585  -2.021000 -22.562800   0.021699   0.034215 -15.026800   0.003898   0.026369 -27.980300  -1.479090   2.857900 -30.241500   0.034646   0.095417 -20.140800  -0.003012   0.067553 -28.440000  -5.524330  10.163500 -43.393200  -0.002855   0.046679 -28.899900  -0.018246   0.028563   3.804640  -2.181160  15.869100  69.495600  27.089100   8.386490 -16.778600 -11.416700  76.922600 -44.914500  -9.994880  17.831600 -43.765900  32.195300  70.830600   8.708250  -0.013675   0.000078  -0.645851  -0.003102   0.000828  21.804900   2.880000   7.110440  17.986600   0.022245   0.001584  12.590600   0.015118   0.003607  21.037900   0.396923   0.949386  20.499900   0.069203  -0.003490  13.653000   0.043789  -0.013902  26.940900  -3.158820  -6.242410  27.551400   0.042620   0.015515  18.349200   0.029599  -0.000183  28.410900  -6.725180 -12.206000  43.723000   0.034297   0.014996  29.119500   0.024173  -0.005185   4.168180  14.702700   2.353900   0.255182   0.100565  10.613200  -2.875550  -2.876210   0.138864  -0.000000   0.000000   0.000000   2.099120   9.669470  -6.948440   1.313160   4.591490  -7.030790  -3.563800  -2.663110  -1.323920  -0.000000   0.000000   0.000000
 -2.631730  89.519200   2.274010  -2.485750 -11.053800   1.192070   2.507220   8.161610  -1.136450   5.260290  16.262900  -2.677930  -2.609920   1.005230   0.045728  -4.291240   2.025260  12.613500  -9.184240   0.412835   0.552880 -67.313200  31.356600 -17.382400   9.321930  -1.564720 -77.306400  33.306400  -5.055370   1.320740  36.750000  23.168700 -65.190100 -14.112400   0.044392   0.011192  -2.056220   0.022542   0.000169 -22.655200   4.538880 -10.636800 -18.887400   0.028399   0.025814 -13.221200   0.015050   0.022311 -24.553400   1.208510  -2.538880 -24.435300   0.029654   0.038444 -16.273900   0.004331   0.030407 -28.411700  -1.451710   2.692290 -34.487600   0.032125   0.083145 -22.968700  -0.003026   0.059360 -30.597400  -5.597790   9.432260 -46.585900  -0.000306   0.038622 -31.026200  -0.015221   0.020898   3.862380  -2.126630  15.884500  68.772800  27.293700   8.913740 -17.016000 -11.679600  75.316200 -44.280000 -10.103200  17.209500 -43.197500  32.771300  72.166800  10.161100  -0.012791   0.000151   0.080588  -0.003235   0.000786  23.890500   3.037090   6.772430  19.694500   0.020649   0.001402  13.786100   0.014233   0.003326  23.249100   0.456094   1.038570  22.345700   0.072732  -0.000065  14.882300   0.046673  -0.013954  27.840300  -3.068920  -5.796480  30.037500   0.050898   0.015616  20.004900   0.035337  -0.000058  30.332300  -6.604150 -11.097800  46.489100   0.037635   0.013677  30.961700   0.025197  -0.007632   4.174090  14.573700   2.326320   0.250598   0.093009  10.582500  -2.880570  -2.879020   0.096213   0.000000   0.000000   0.000000   2.104700   9.590060  -6.948920   1.330160   4.521120  -7.097800  -3.580850  -2.652880  -1.361630  -0.000000   0.000000   0.000000
 -2.645980  89.520800   2.300200  -2.468110 -10.923800   1.289770   2.486230   8.062400  -1.151060   5.214880  16.064400  -2.697170  -2.604980   0.876225   0.039810  -4.282900   1.765400  12.729300  -9.153000   0.503625   0.729548 -67.432100  30.881400 -17.465100   9.151820  -2.126640 -76.295600  32.876600  -5.322090   1.726050  37.393900  23.589600 -64.939200 -15.111000   0.027489   0.007179  -2.555510   0.014045  -0.000254 -24.822200   4.937590 -10.497700 -20.684100   0.016099   0.014518 -14.478800   0.008562   0.013277 -26.457500   1.328560  -2.571390 -26.905800   0.023519   0.029414 -17.919200   0.004384   0.023317 -28.613600  -1.469770   2.713100 -38.588800   0.018072   0.040170 -25.700100  -0.002991   0.029012 -32.533200  -5.621580   8.772870 -49.444900   0.000612   0.020597 -32.930300  -0.008207   0.011593   3.909510  -2.055040  15.822300  67.972900  27.025300   9.456230 -17.091300 -11.437100  73.710000 -43.739300 -10.291600  16.641600 -43.056800  33.465400  73.401000  10.515500  -0.011895   0.000205   0.257777  -0.003370   0.000751  25.220400   3.227650   6.783770  20.792100   0.014727   0.001181  14.554500   0.010672   0.002989  25.821000   0.519080   1.070810  25.426900   0.053130   0.004838  16.934400   0.035305  -0.006846  27.953800  -2.769980  -5.161280  33.535300   0.046229   0.012560  22.334400   0.031496   0.000119  32.061700  -6.287820  -9.920800  48.930600   0.034628   0.009798  32.587800   0.022572  -0.008106   4.188440  14.455200   2.305570   0.242796   0.086396  10.550200  -2.884600  -2.887900   0.056938   0.000000   0.000000  -0.000000   2.120020   9.515820  -6.944210   1.340250   4.452740  -7.166810  -3.596490  -2.644600  -1.389330   0.000000   0.000000   0.000000
 -2.658390  89.521800   2.328780  -2.454090 -10.792300   1.376120   2.466760   7.959350  -1.157700   5.172760  15.858700  -2.703590  -2.597230   0.746971   0.033875  -4.269090   1.505340  12.793600  -9.121950   0.601394   0.819206 -67.591500  30.238500 -17.496100   9.079950  -2.485230 -75.228200  32.412000  -5.496520   2.047580  38.155100  24.098500 -64.709300 -16.406500   0.010587   0.003167  -3.203270   0.005548  -0.000717 -26.649600   5.213860 -10.238100 -22.187400   0.007013   0.006317 -15.531100   0.003398   0.005650 -27.831300   1.358970  -2.576050 -29.545700   0.015013   0.020383 -19.677400   0.004391   0.016227 -28.760000  -1.508380   2.753360 -42.021500   0.003919   0.007714 -27.986300  -0.002900   0.005688 -34.129200  -5.642680   8.255450 -51.804700   0.000838   0.007788 -34.501900  -0.002603   0.004478   3.948870  -1.973090  15.682700  67.147100  26.422800   9.970300 -17.058300 -10.848000  72.091800 -43.300300 -10.493900  16.163300 -42.885600  34.007300  74.410700  10.926300  -0.011004   0.000234   0.463149  -0.003500   0.000713  26.262400   3.385140   6.794950  21.651100   0.010173   0.000925  15.155800   0.006619   0.002615  27.789300   0.592485   1.108350  28.889800   0.033528   0.008075  19.240600   0.022547   0.000263  28.063300  -2.428330  -4.541680  37.287100   0.037775   0.006954  24.833200   0.024531   0.000329  33.731800  -5.897260  -8.773870  51.290500   0.029221   0.004823  34.159500   0.017636  -0.008235   4.204960  14.334900   2.288900   0.233626   0.083303  10.519800  -2.888870  -2.904150   0.021356   0.000000   0.000000   0.000000   2.137220   9.438690  -6.937170   1.348140   4.388250  -7.231250  -3.610060  -2.638170  -1.412530  -0.000000   0.000000   0.000000
